<svg width="2100px" height="795px"
 viewBox="0.00 0.00 2099.61 795.00" xmlns="http://www.w3.org/2000/svg" xmlns:xlink="http://www.w3.org/1999/xlink">
<g id="graph0" class="graph" transform="scale(1.0 1.0) rotate(0.0) translate(4.0 791.0)">
<title>example1</title>
<polygon fill="white" stroke="transparent" points="-4,4 -4,-791 2095.61,-791 2095.61,4 -4,4"/>
<!-- scalaVersion -->
<g id="node1" class="node">
<title>scalaVersion</title>
<polygon fill="none" stroke="black" stroke-dasharray="5,2" points="130.5,-243 0.17,-243 0.17,-207 130.5,-207 130.5,-243"/>
<text text-anchor="middle" x="65.33" y="-220.8" font-family="Times,serif" font-size="14.00">scalaVersion</text>
</g>
<!-- scalaOrganization -->
<g id="node2" class="node">
<title>scalaOrganization</title>
<polygon fill="none" stroke="black" stroke-dasharray="5,2" points="326.32,-243 166.45,-243 166.45,-207 326.32,-207 326.32,-243"/>
<text text-anchor="middle" x="246.38" y="-220.8" font-family="Times,serif" font-size="14.00">scalaOrganization</text>
</g>
<!-- scalaVersion&#45;&gt;scalaOrganization -->
<g id="edge3" class="edge">
<title>scalaVersion&#45;&gt;scalaOrganization</title>
<path fill="none" stroke="black" d="M130.72,-225C139.08,-225 147.76,-225 156.43,-225"/>
<polygon fill="black" stroke="black" points="156.58,-228.5 166.58,-225 156.58,-221.5 156.58,-228.5"/>
</g>
<!-- transitiveCompileIvyDeps -->
<g id="node19" class="node">
<title>transitiveCompileIvyDeps</title>
<polygon fill="none" stroke="black" stroke-dasharray="5,2" points="1068.83,-539 862.6,-539 862.6,-503 1068.83,-503 1068.83,-539"/>
<text text-anchor="middle" x="965.71" y="-516.8" font-family="Times,serif" font-size="14.00">transitiveCompileIvyDeps</text>
</g>
<!-- scalaVersion&#45;&gt;transitiveCompileIvyDeps -->
<g id="edge2" class="edge">
<title>scalaVersion&#45;&gt;transitiveCompileIvyDeps</title>
<path fill="none" stroke="black" d="M93.47,-243.07C173.76,-295.37 418.78,-446.62 646.99,-502 713.88,-518.23 790.9,-523.17 852.36,-523.95"/>
<polygon fill="black" stroke="black" points="852.44,-527.46 862.47,-524.05 852.5,-520.46 852.44,-527.46"/>
</g>
<!-- zincAuxiliaryClassFileExtensions -->
<g id="node34" class="node">
<title>zincAuxiliaryClassFileExtensions</title>
<polygon fill="none" stroke="black" stroke-dasharray="5,2" points="610.94,-87 362.15,-87 362.15,-51 610.94,-51 610.94,-87"/>
<text text-anchor="middle" x="486.55" y="-64.8" font-family="Times,serif" font-size="14.00">zincAuxiliaryClassFileExtensions</text>
</g>
<!-- scalaVersion&#45;&gt;zincAuxiliaryClassFileExtensions -->
<g id="edge1" class="edge">
<title>scalaVersion&#45;&gt;zincAuxiliaryClassFileExtensions</title>
<path fill="none" stroke="black" d="M114.83,-206.95C192.47,-178.06 344.38,-121.53 427.61,-90.56"/>
<polygon fill="black" stroke="black" points="429.01,-93.77 437.16,-87.01 426.57,-87.21 429.01,-93.77"/>
</g>
<!-- scalaLibraryIvyDeps -->
<g id="node4" class="node">
<title>scalaLibraryIvyDeps</title>
<polygon fill="none" stroke="black" stroke-dasharray="5,2" points="574.3,-367 398.79,-367 398.79,-331 574.3,-331 574.3,-367"/>
<text text-anchor="middle" x="486.55" y="-344.8" font-family="Times,serif" font-size="14.00">scalaLibraryIvyDeps</text>
</g>
<!-- scalaOrganization&#45;&gt;scalaLibraryIvyDeps -->
<g id="edge6" class="edge">
<title>scalaOrganization&#45;&gt;scalaLibraryIvyDeps</title>
<path fill="none" stroke="black" d="M282.01,-243.03C324.26,-265.02 395.71,-302.23 441.74,-326.19"/>
<polygon fill="black" stroke="black" points="440.39,-329.43 450.87,-330.95 443.62,-323.22 440.39,-329.43"/>
</g>
<!-- enablePluginScalacOptions -->
<g id="node27" class="node">
<title>enablePluginScalacOptions</title>
<polygon fill="none" stroke="black" stroke-dasharray="5,2" points="1072.05,-197 859.38,-197 859.38,-161 1072.05,-161 1072.05,-197"/>
<text text-anchor="middle" x="965.71" y="-174.8" font-family="Times,serif" font-size="14.00">enablePluginScalacOptions</text>
</g>
<!-- scalaOrganization&#45;&gt;enablePluginScalacOptions -->
<g id="edge5" class="edge">
<title>scalaOrganization&#45;&gt;enablePluginScalacOptions</title>
<path fill="none" stroke="black" d="M326.41,-226.28C437.69,-227.2 646.74,-225.7 823.55,-206 839.36,-204.24 856.05,-201.68 872.21,-198.83"/>
<polygon fill="black" stroke="black" points="872.97,-202.25 882.18,-197.02 871.72,-195.36 872.97,-202.25"/>
</g>
<!-- scalacPluginClasspath -->
<g id="node33" class="node">
<title>scalacPluginClasspath</title>
<polygon fill="none" stroke="black" stroke-dasharray="5,2" points="1057.28,-143 874.15,-143 874.15,-107 1057.28,-107 1057.28,-143"/>
<text text-anchor="middle" x="965.71" y="-120.8" font-family="Times,serif" font-size="14.00">scalacPluginClasspath</text>
</g>
<!-- scalaOrganization&#45;&gt;scalacPluginClasspath -->
<g id="edge4" class="edge">
<title>scalaOrganization&#45;&gt;scalacPluginClasspath</title>
<path fill="none" stroke="black" d="M326.26,-208.28C406.61,-191.79 534.97,-166.96 646.99,-152 719.24,-142.35 801.22,-135.49 863.81,-131.09"/>
<polygon fill="black" stroke="black" points="864.34,-134.57 874.07,-130.38 863.86,-127.58 864.34,-134.57"/>
</g>
<!-- ivyDeps -->
<g id="node3" class="node">
<title>ivyDeps</title>
<polygon fill="none" stroke="black" stroke-dasharray="5,2" points="787.8,-647 682.74,-647 682.74,-611 787.8,-611 787.8,-647"/>
<text text-anchor="middle" x="735.27" y="-624.8" font-family="Times,serif" font-size="14.00">ivyDeps</text>
</g>
<!-- ivyDeps&#45;&gt;ivyDeps -->
<g id="edge8" class="edge">
<title>ivyDeps&#45;&gt;ivyDeps</title>
<path fill="none" stroke="black" d="M693.66,-647.15C687.26,-656.54 701.13,-665 735.27,-665 756.07,-665 769.35,-661.86 775.1,-657.28"/>
<polygon fill="black" stroke="black" points="778.6,-657.61 776.88,-647.15 771.7,-656.4 778.6,-657.61"/>
</g>
<!-- transitiveIvyDeps -->
<g id="node7" class="node">
<title>transitiveIvyDeps</title>
<polygon fill="none" stroke="black" stroke-dasharray="5,2" points="1044.61,-647 886.82,-647 886.82,-611 1044.61,-611 1044.61,-647"/>
<text text-anchor="middle" x="965.71" y="-624.8" font-family="Times,serif" font-size="14.00">transitiveIvyDeps</text>
</g>
<!-- ivyDeps&#45;&gt;transitiveIvyDeps -->
<g id="edge7" class="edge">
<title>ivyDeps&#45;&gt;transitiveIvyDeps</title>
<path fill="none" stroke="black" d="M787.82,-629C813.95,-629 846.42,-629 876.37,-629"/>
<polygon fill="black" stroke="black" points="876.43,-632.5 886.43,-629 876.43,-625.5 876.43,-632.5"/>
</g>
<!-- mandatoryIvyDeps -->
<g id="node5" class="node">
<title>mandatoryIvyDeps</title>
<polygon fill="none" stroke="black" stroke-dasharray="5,2" points="817.94,-475 652.6,-475 652.6,-439 817.94,-439 817.94,-475"/>
<text text-anchor="middle" x="735.27" y="-452.8" font-family="Times,serif" font-size="14.00">mandatoryIvyDeps</text>
</g>
<!-- scalaLibraryIvyDeps&#45;&gt;mandatoryIvyDeps -->
<g id="edge10" class="edge">
<title>scalaLibraryIvyDeps&#45;&gt;mandatoryIvyDeps</title>
<path fill="none" stroke="black" d="M519.17,-367.09C550.81,-384.7 601.24,-411.46 646.99,-430 651.74,-431.92 656.68,-433.79 661.68,-435.59"/>
<polygon fill="black" stroke="black" points="660.77,-438.97 671.36,-438.95 663.06,-432.36 660.77,-438.97"/>
</g>
<!-- scalaCompilerClasspath -->
<g id="node32" class="node">
<title>scalaCompilerClasspath</title>
<polygon fill="none" stroke="black" stroke-dasharray="5,2" points="1062.38,-359 869.04,-359 869.04,-323 1062.38,-323 1062.38,-359"/>
<text text-anchor="middle" x="965.71" y="-336.8" font-family="Times,serif" font-size="14.00">scalaCompilerClasspath</text>
</g>
<!-- scalaLibraryIvyDeps&#45;&gt;scalaCompilerClasspath -->
<g id="edge9" class="edge">
<title>scalaLibraryIvyDeps&#45;&gt;scalaCompilerClasspath</title>
<path fill="none" stroke="black" d="M574.51,-347.54C654.46,-346.2 773.19,-344.21 858.67,-342.78"/>
<polygon fill="black" stroke="black" points="858.98,-346.27 868.92,-342.61 858.87,-339.27 858.98,-346.27"/>
</g>
<!-- mandatoryIvyDeps&#45;&gt;mandatoryIvyDeps -->
<g id="edge12" class="edge">
<title>mandatoryIvyDeps&#45;&gt;mandatoryIvyDeps</title>
<path fill="none" stroke="black" d="M693.66,-475.15C687.26,-484.54 701.13,-493 735.27,-493 756.07,-493 769.35,-489.86 775.1,-485.28"/>
<polygon fill="black" stroke="black" points="778.6,-485.61 776.88,-475.15 771.7,-484.4 778.6,-485.61"/>
</g>
<!-- mandatoryIvyDeps&#45;&gt;transitiveIvyDeps -->
<g id="edge11" class="edge">
<title>mandatoryIvyDeps&#45;&gt;transitiveIvyDeps</title>
<path fill="none" stroke="black" d="M746.59,-475.29C765.08,-506.31 806.87,-569.07 859.55,-602 865,-605.41 870.87,-608.39 876.95,-611"/>
<polygon fill="black" stroke="black" points="876.05,-614.4 886.63,-614.79 878.6,-607.88 876.05,-614.4"/>
</g>
<!-- platformSuffix -->
<g id="node6" class="node">
<title>platformSuffix</title>
<polygon fill="none" stroke="black" stroke-dasharray="5,2" points="805.84,-321 664.69,-321 664.69,-285 805.84,-285 805.84,-321"/>
<text text-anchor="middle" x="735.27" y="-298.8" font-family="Times,serif" font-size="14.00">platformSuffix</text>
</g>
<!-- platformSuffix&#45;&gt;transitiveIvyDeps -->
<g id="edge17" class="edge">
<title>platformSuffix&#45;&gt;transitiveIvyDeps</title>
<path fill="none" stroke="black" d="M767.94,-321.25C787.18,-334.06 810.48,-352.98 823.55,-376 873.74,-464.46 791.06,-526.8 859.55,-602 864.65,-607.61 870.75,-612.12 877.4,-615.74"/>
<polygon fill="black" stroke="black" points="876.23,-619.06 886.77,-620.14 879.21,-612.72 876.23,-619.06"/>
</g>
<!-- platformSuffix&#45;&gt;transitiveCompileIvyDeps -->
<g id="edge16" class="edge">
<title>platformSuffix&#45;&gt;transitiveCompileIvyDeps</title>
<path fill="none" stroke="black" d="M765.62,-321.03C784.65,-334.12 808.6,-353.44 823.55,-376 853.83,-421.71 819.92,-456.11 859.55,-494 860.65,-495.06 861.8,-496.08 862.97,-497.06"/>
<polygon fill="black" stroke="black" points="861,-499.95 871.16,-502.98 865.11,-494.28 861,-499.95"/>
</g>
<!-- platformSuffix&#45;&gt;enablePluginScalacOptions -->
<g id="edge15" class="edge">
<title>platformSuffix&#45;&gt;enablePluginScalacOptions</title>
<path fill="none" stroke="black" d="M762.41,-284.96C780.05,-272.51 803.65,-255.33 823.55,-239 840.32,-225.23 840.46,-216.34 859.55,-206 862.85,-204.21 866.27,-202.54 869.78,-200.97"/>
<polygon fill="black" stroke="black" points="871.33,-204.12 879.24,-197.07 868.66,-197.65 871.33,-204.12"/>
</g>
<!-- platformSuffix&#45;&gt;scalaCompilerClasspath -->
<g id="edge14" class="edge">
<title>platformSuffix&#45;&gt;scalaCompilerClasspath</title>
<path fill="none" stroke="black" d="M806.05,-314.61C822.77,-317.39 840.99,-320.42 858.93,-323.4"/>
<polygon fill="black" stroke="black" points="858.42,-326.87 868.86,-325.06 859.57,-319.96 858.42,-326.87"/>
</g>
<!-- platformSuffix&#45;&gt;scalacPluginClasspath -->
<g id="edge13" class="edge">
<title>platformSuffix&#45;&gt;scalacPluginClasspath</title>
<path fill="none" stroke="black" d="M754.16,-284.74C772.42,-265.74 801.17,-234.81 823.55,-206 841.24,-183.22 836.02,-168.69 859.55,-152 861.63,-150.52 863.79,-149.12 866.01,-147.8"/>
<polygon fill="black" stroke="black" points="867.68,-150.88 874.84,-143.07 864.38,-144.71 867.68,-150.88"/>
</g>
<!-- resolvedRunIvyDeps -->
<g id="node9" class="node">
<title>resolvedRunIvyDeps</title>
<polygon fill="none" stroke="black" stroke-dasharray="5,2" points="1339.43,-733 1163.31,-733 1163.31,-697 1339.43,-697 1339.43,-733"/>
<text text-anchor="middle" x="1251.37" y="-710.8" font-family="Times,serif" font-size="14.00">resolvedRunIvyDeps</text>
</g>
<!-- transitiveIvyDeps&#45;&gt;resolvedRunIvyDeps -->
<g id="edge19" class="edge">
<title>transitiveIvyDeps&#45;&gt;resolvedRunIvyDeps</title>
<path fill="none" stroke="black" d="M1044.69,-644.53C1054.11,-647.7 1063.39,-651.48 1071.88,-656 1090.78,-666.06 1088.67,-678.55 1107.88,-688 1122.01,-694.95 1137.73,-700.11 1153.43,-703.95"/>
<polygon fill="black" stroke="black" points="1152.66,-707.36 1163.19,-706.17 1154.22,-700.54 1152.66,-707.36"/>
</g>
<!-- resolvedIvyDeps -->
<g id="node21" class="node">
<title>resolvedIvyDeps</title>
<polygon fill="none" stroke="black" stroke-dasharray="5,2" points="1328.09,-517 1174.64,-517 1174.64,-481 1328.09,-481 1328.09,-517"/>
<text text-anchor="middle" x="1251.37" y="-494.8" font-family="Times,serif" font-size="14.00">resolvedIvyDeps</text>
</g>
<!-- transitiveIvyDeps&#45;&gt;resolvedIvyDeps -->
<g id="edge18" class="edge">
<title>transitiveIvyDeps&#45;&gt;resolvedIvyDeps</title>
<path fill="none" stroke="black" d="M1044.61,-617.41C1054.47,-613.61 1063.88,-608.6 1071.88,-602 1100.71,-578.21 1078.3,-548.85 1107.88,-526 1124.14,-513.43 1144.53,-506.13 1164.75,-502.02"/>
<polygon fill="black" stroke="black" points="1165.41,-505.46 1174.64,-500.25 1164.18,-498.57 1165.41,-505.46"/>
</g>
<!-- runIvyDeps -->
<g id="node8" class="node">
<title>runIvyDeps</title>
<polygon fill="none" stroke="black" stroke-dasharray="5,2" points="1028.17,-755 903.25,-755 903.25,-719 1028.17,-719 1028.17,-755"/>
<text text-anchor="middle" x="965.71" y="-732.8" font-family="Times,serif" font-size="14.00">runIvyDeps</text>
</g>
<!-- runIvyDeps&#45;&gt;resolvedRunIvyDeps -->
<g id="edge20" class="edge">
<title>runIvyDeps&#45;&gt;resolvedRunIvyDeps</title>
<path fill="none" stroke="black" d="M1028.26,-732.23C1064.69,-729.4 1111.65,-725.76 1153,-722.55"/>
<polygon fill="black" stroke="black" points="1153.41,-726.03 1163.11,-721.77 1152.87,-719.05 1153.41,-726.03"/>
</g>
<!-- upstreamAssemblyClasspath -->
<g id="node10" class="node">
<title>upstreamAssemblyClasspath</title>
<polygon fill="none" stroke="black" stroke-dasharray="5,2" points="1662.68,-733 1442.45,-733 1442.45,-697 1662.68,-697 1662.68,-733"/>
<text text-anchor="middle" x="1552.56" y="-710.8" font-family="Times,serif" font-size="14.00">upstreamAssemblyClasspath</text>
</g>
<!-- resolvedRunIvyDeps&#45;&gt;upstreamAssemblyClasspath -->
<g id="edge21" class="edge">
<title>resolvedRunIvyDeps&#45;&gt;upstreamAssemblyClasspath</title>
<path fill="none" stroke="black" d="M1339.71,-715C1368.54,-715 1401.11,-715 1431.92,-715"/>
<polygon fill="black" stroke="black" points="1432.29,-718.5 1442.29,-715 1432.29,-711.5 1432.29,-718.5"/>
</g>
<!-- docker.buildSettings -->
<g id="node44" class="node">
<title>docker.buildSettings</title>
<polygon fill="none" stroke="black" points="2091.54,-278 1917.82,-278 1917.82,-242 2091.54,-242 2091.54,-278"/>
<text text-anchor="middle" x="2004.68" y="-255.8" font-family="Times,serif" font-size="14.00">docker.buildSettings</text>
</g>
<!-- upstreamAssemblyClasspath&#45;&gt;docker.buildSettings -->
<g id="edge22" class="edge">
<title>upstreamAssemblyClasspath&#45;&gt;docker.buildSettings</title>
<path fill="none" stroke="black" d="M1585.15,-696.91C1610.48,-681.69 1646.29,-658.54 1674.28,-634 1806.31,-518.23 1936.03,-350.96 1984.12,-286.61"/>
<polygon fill="black" stroke="black" points="1987.19,-288.34 1990.35,-278.23 1981.58,-284.16 1987.19,-288.34"/>
</g>
<!-- transitiveLocalClasspath -->
<g id="node11" class="node">
<title>transitiveLocalClasspath</title>
<polygon fill="none" stroke="black" stroke-dasharray="5,2" points="1349.64,-787 1153.09,-787 1153.09,-751 1349.64,-751 1349.64,-787"/>
<text text-anchor="middle" x="1251.37" y="-764.8" font-family="Times,serif" font-size="14.00">transitiveLocalClasspath</text>
</g>
<!-- transitiveLocalClasspath&#45;&gt;upstreamAssemblyClasspath -->
<g id="edge23" class="edge">
<title>transitiveLocalClasspath&#45;&gt;upstreamAssemblyClasspath</title>
<path fill="none" stroke="black" d="M1349.92,-751.39C1379.18,-746.11 1411.48,-740.28 1441.5,-734.87"/>
<polygon fill="black" stroke="black" points="1442.36,-738.27 1451.58,-733.05 1441.12,-731.38 1442.36,-738.27"/>
</g>
<!-- mill.scalalib.ZincWorkerModule.classpath -->
<g id="node12" class="node">
<title>mill.scalalib.ZincWorkerModule.classpath</title>
<polygon fill="none" stroke="black" stroke-dasharray="5,2" points="1378.96,-625 1123.77,-625 1123.77,-589 1378.96,-589 1378.96,-625"/>
<text text-anchor="middle" x="1251.37" y="-602.8" font-family="Times,serif" font-size="14.00">mill.scalalib.ZincWorkerModule.classpath</text>
</g>
<!-- mill.scalalib.ZincWorkerModule.worker -->
<g id="node13" class="node">
<title>mill.scalalib.ZincWorkerModule.worker</title>
<polygon fill="none" stroke="black" stroke-dasharray="5,2" points="1674.49,-517 1430.64,-517 1430.64,-481 1674.49,-481 1674.49,-517"/>
<text text-anchor="middle" x="1552.56" y="-494.8" font-family="Times,serif" font-size="14.00">mill.scalalib.ZincWorkerModule.worker</text>
</g>
<!-- mill.scalalib.ZincWorkerModule.classpath&#45;&gt;mill.scalalib.ZincWorkerModule.worker -->
<g id="edge24" class="edge">
<title>mill.scalalib.ZincWorkerModule.classpath&#45;&gt;mill.scalalib.ZincWorkerModule.worker</title>
<path fill="none" stroke="black" d="M1378.92,-588.89C1384.47,-586.29 1389.82,-583.34 1394.85,-580 1418.9,-564.07 1407.07,-542.32 1430.85,-526 1433.02,-524.51 1435.26,-523.1 1437.56,-521.77"/>
<polygon fill="black" stroke="black" points="1439.43,-524.74 1446.67,-517.01 1436.18,-518.54 1439.43,-524.74"/>
</g>
<!-- compile -->
<g id="node35" class="node">
<title>compile</title>
<polygon fill="none" stroke="black" stroke-dasharray="5,2" points="1847.99,-359 1744.04,-359 1744.04,-323 1847.99,-323 1847.99,-359"/>
<text text-anchor="middle" x="1796.01" y="-336.8" font-family="Times,serif" font-size="14.00">compile</text>
</g>
<!-- mill.scalalib.ZincWorkerModule.worker&#45;&gt;compile -->
<g id="edge25" class="edge">
<title>mill.scalalib.ZincWorkerModule.worker&#45;&gt;compile</title>
<path fill="none" stroke="black" d="M1655.72,-480.92C1662.17,-478.34 1668.42,-475.38 1674.28,-472 1719.39,-445.98 1757.39,-397.52 1778.12,-367.39"/>
<polygon fill="black" stroke="black" points="1781.06,-369.29 1783.74,-359.04 1775.25,-365.38 1781.06,-369.29"/>
</g>
<!-- mill.scalalib.ZincWorkerModule.zincLogDebug -->
<g id="node14" class="node">
<title>mill.scalalib.ZincWorkerModule.zincLogDebug</title>
<polygon fill="none" stroke="black" stroke-dasharray="5,2" points="1394.84,-679 1107.89,-679 1107.89,-643 1394.84,-643 1394.84,-679"/>
<text text-anchor="middle" x="1251.37" y="-656.8" font-family="Times,serif" font-size="14.00">mill.scalalib.ZincWorkerModule.zincLogDebug</text>
</g>
<!-- mill.scalalib.ZincWorkerModule.zincLogDebug&#45;&gt;mill.scalalib.ZincWorkerModule.worker -->
<g id="edge26" class="edge">
<title>mill.scalalib.ZincWorkerModule.zincLogDebug&#45;&gt;mill.scalalib.ZincWorkerModule.worker</title>
<path fill="none" stroke="black" d="M1382.71,-642.92C1386.99,-640.27 1391.06,-637.31 1394.85,-634 1432.95,-600.71 1393.3,-559.91 1430.85,-526 1432,-524.97 1433.18,-523.97 1434.38,-523.01"/>
<polygon fill="black" stroke="black" points="1436.54,-525.77 1442.71,-517.16 1432.51,-520.04 1436.54,-525.77"/>
</g>
<!-- sources -->
<g id="node15" class="node">
<title>sources</title>
<polygon fill="none" stroke="black" stroke-dasharray="5,2" points="1016.06,-593 915.36,-593 915.36,-557 1016.06,-557 1016.06,-593"/>
<text text-anchor="middle" x="965.71" y="-570.8" font-family="Times,serif" font-size="14.00">sources</text>
</g>
<!-- allSources -->
<g id="node16" class="node">
<title>allSources</title>
<polygon fill="none" stroke="black" stroke-dasharray="5,2" points="1309.55,-571 1193.18,-571 1193.18,-535 1309.55,-535 1309.55,-571"/>
<text text-anchor="middle" x="1251.37" y="-548.8" font-family="Times,serif" font-size="14.00">allSources</text>
</g>
<!-- sources&#45;&gt;allSources -->
<g id="edge27" class="edge">
<title>sources&#45;&gt;allSources</title>
<path fill="none" stroke="black" d="M1016.12,-571.17C1062.33,-567.58 1131.71,-562.2 1182.98,-558.23"/>
<polygon fill="black" stroke="black" points="1183.28,-561.71 1192.98,-557.45 1182.74,-554.73 1183.28,-561.71"/>
</g>
<!-- allSourceFiles -->
<g id="node18" class="node">
<title>allSourceFiles</title>
<polygon fill="none" stroke="black" stroke-dasharray="5,2" points="1622.03,-463 1483.1,-463 1483.1,-427 1622.03,-427 1622.03,-463"/>
<text text-anchor="middle" x="1552.56" y="-440.8" font-family="Times,serif" font-size="14.00">allSourceFiles</text>
</g>
<!-- allSources&#45;&gt;allSourceFiles -->
<g id="edge28" class="edge">
<title>allSources&#45;&gt;allSourceFiles</title>
<path fill="none" stroke="black" d="M1309.65,-552.29C1337.33,-549.54 1369.87,-542.55 1394.85,-526 1418.9,-510.07 1407.07,-488.32 1430.85,-472 1443.42,-463.38 1458.29,-457.46 1473.23,-453.41"/>
<polygon fill="black" stroke="black" points="1474.15,-456.79 1483.03,-451.01 1472.48,-449.99 1474.15,-456.79"/>
</g>
<!-- generatedSources -->
<g id="node17" class="node">
<title>generatedSources</title>
<polygon fill="none" stroke="black" stroke-dasharray="5,2" points="1044.31,-701 887.11,-701 887.11,-665 1044.31,-665 1044.31,-701"/>
<text text-anchor="middle" x="965.71" y="-678.8" font-family="Times,serif" font-size="14.00">generatedSources</text>
</g>
<!-- generatedSources&#45;&gt;allSources -->
<g id="edge29" class="edge">
<title>generatedSources&#45;&gt;allSources</title>
<path fill="none" stroke="black" d="M1044.34,-671.51C1054.3,-667.7 1063.81,-662.66 1071.88,-656 1100.71,-632.21 1078.3,-602.85 1107.88,-580 1129.07,-563.62 1157.26,-556.2 1182.96,-553.11"/>
<polygon fill="black" stroke="black" points="1183.45,-556.58 1193.05,-552.09 1182.75,-549.61 1183.45,-556.58"/>
</g>
<!-- allSourceFiles&#45;&gt;compile -->
<g id="edge30" class="edge">
<title>allSourceFiles&#45;&gt;compile</title>
<path fill="none" stroke="black" d="M1621.89,-434.05C1639.34,-430.08 1657.82,-424.84 1674.28,-418 1706.79,-404.49 1740.27,-382.36 1763.71,-365.29"/>
<polygon fill="black" stroke="black" points="1765.91,-368.01 1771.87,-359.25 1761.75,-362.39 1765.91,-368.01"/>
</g>
<!-- transitiveCompileIvyDeps&#45;&gt;resolvedIvyDeps -->
<g id="edge31" class="edge">
<title>transitiveCompileIvyDeps&#45;&gt;resolvedIvyDeps</title>
<path fill="none" stroke="black" d="M1069.12,-513.06C1100.34,-510.64 1134.33,-508 1164.36,-505.67"/>
<polygon fill="black" stroke="black" points="1164.68,-509.16 1174.38,-504.89 1164.13,-502.18 1164.68,-509.16"/>
</g>
<!-- compileIvyDeps -->
<g id="node20" class="node">
<title>compileIvyDeps</title>
<polygon fill="none" stroke="black" stroke-dasharray="5,2" points="810.67,-421 659.87,-421 659.87,-385 810.67,-385 810.67,-421"/>
<text text-anchor="middle" x="735.27" y="-398.8" font-family="Times,serif" font-size="14.00">compileIvyDeps</text>
</g>
<!-- compileIvyDeps&#45;&gt;transitiveCompileIvyDeps -->
<g id="edge32" class="edge">
<title>compileIvyDeps&#45;&gt;transitiveCompileIvyDeps</title>
<path fill="none" stroke="black" d="M809.87,-421.06C814.73,-423.65 819.35,-426.61 823.55,-430 848.94,-450.5 833.66,-474.12 859.55,-494 861.34,-495.38 863.19,-496.68 865.1,-497.92"/>
<polygon fill="black" stroke="black" points="863.36,-500.96 873.77,-502.95 866.87,-494.9 863.36,-500.96"/>
</g>
<!-- compileClasspath -->
<g id="node25" class="node">
<title>compileClasspath</title>
<polygon fill="none" stroke="black" stroke-dasharray="5,2" points="1631.47,-409 1473.66,-409 1473.66,-373 1631.47,-373 1631.47,-409"/>
<text text-anchor="middle" x="1552.56" y="-386.8" font-family="Times,serif" font-size="14.00">compileClasspath</text>
</g>
<!-- resolvedIvyDeps&#45;&gt;compileClasspath -->
<g id="edge33" class="edge">
<title>resolvedIvyDeps&#45;&gt;compileClasspath</title>
<path fill="none" stroke="black" d="M1327.99,-495.89C1350.93,-492.11 1375.23,-485 1394.85,-472 1418.9,-456.07 1407.07,-434.32 1430.85,-418 1440.74,-411.21 1452.07,-406.1 1463.72,-402.26"/>
<polygon fill="black" stroke="black" points="1464.99,-405.53 1473.57,-399.32 1462.99,-398.83 1464.99,-405.53"/>
</g>
<!-- unmanagedClasspath -->
<g id="node22" class="node">
<title>unmanagedClasspath</title>
<polygon fill="none" stroke="black" stroke-dasharray="5,2" points="1054.55,-413 876.87,-413 876.87,-377 1054.55,-377 1054.55,-413"/>
<text text-anchor="middle" x="965.71" y="-390.8" font-family="Times,serif" font-size="14.00">unmanagedClasspath</text>
</g>
<!-- unmanagedClasspath&#45;&gt;unmanagedClasspath -->
<g id="edge35" class="edge">
<title>unmanagedClasspath&#45;&gt;unmanagedClasspath</title>
<path fill="none" stroke="black" d="M924.1,-413.15C917.7,-422.54 931.57,-431 965.71,-431 986.52,-431 999.79,-427.86 1005.54,-423.28"/>
<polygon fill="black" stroke="black" points="1009.04,-423.61 1007.32,-413.15 1002.15,-422.4 1009.04,-423.61"/>
</g>
<!-- localCompileClasspath -->
<g id="node24" class="node">
<title>localCompileClasspath</title>
<polygon fill="none" stroke="black" stroke-dasharray="5,2" points="1345.61,-409 1157.13,-409 1157.13,-373 1345.61,-373 1345.61,-409"/>
<text text-anchor="middle" x="1251.37" y="-386.8" font-family="Times,serif" font-size="14.00">localCompileClasspath</text>
</g>
<!-- unmanagedClasspath&#45;&gt;localCompileClasspath -->
<g id="edge34" class="edge">
<title>unmanagedClasspath&#45;&gt;localCompileClasspath</title>
<path fill="none" stroke="black" d="M1054.52,-393.76C1083.76,-393.35 1116.59,-392.89 1146.9,-392.46"/>
<polygon fill="black" stroke="black" points="1147.13,-395.96 1157.08,-392.32 1147.03,-388.96 1147.13,-395.96"/>
</g>
<!-- compileResources -->
<g id="node23" class="node">
<title>compileResources</title>
<polygon fill="none" stroke="black" stroke-dasharray="5,2" points="1046.21,-485 885.21,-485 885.21,-449 1046.21,-449 1046.21,-485"/>
<text text-anchor="middle" x="965.71" y="-462.8" font-family="Times,serif" font-size="14.00">compileResources</text>
</g>
<!-- compileResources&#45;&gt;localCompileClasspath -->
<g id="edge36" class="edge">
<title>compileResources&#45;&gt;localCompileClasspath</title>
<path fill="none" stroke="black" d="M1046.23,-449.29C1055.01,-446.54 1063.72,-443.45 1071.88,-440 1089.15,-432.7 1090.38,-424.74 1107.88,-418 1120.36,-413.19 1133.79,-409.21 1147.24,-405.93"/>
<polygon fill="black" stroke="black" points="1148.08,-409.33 1157.03,-403.66 1146.5,-402.51 1148.08,-409.33"/>
</g>
<!-- localCompileClasspath&#45;&gt;compileClasspath -->
<g id="edge37" class="edge">
<title>localCompileClasspath&#45;&gt;compileClasspath</title>
<path fill="none" stroke="black" d="M1345.8,-391C1383.26,-391 1426.21,-391 1463.15,-391"/>
<polygon fill="black" stroke="black" points="1463.4,-394.5 1473.4,-391 1463.4,-387.5 1463.4,-394.5"/>
</g>
<!-- compileClasspath&#45;&gt;compile -->
<g id="edge38" class="edge">
<title>compileClasspath&#45;&gt;compile</title>
<path fill="none" stroke="black" d="M1631.62,-374.84C1664.94,-367.94 1703.24,-360.01 1734.37,-353.56"/>
<polygon fill="black" stroke="black" points="1735.13,-356.97 1744.22,-351.52 1733.71,-350.12 1735.13,-356.97"/>
</g>
<!-- transitiveCompileClasspath -->
<g id="node26" class="node">
<title>transitiveCompileClasspath</title>
<polygon fill="none" stroke="black" stroke-dasharray="5,2" points="1357.99,-463 1144.74,-463 1144.74,-427 1357.99,-427 1357.99,-463"/>
<text text-anchor="middle" x="1251.37" y="-440.8" font-family="Times,serif" font-size="14.00">transitiveCompileClasspath</text>
</g>
<!-- transitiveCompileClasspath&#45;&gt;compileClasspath -->
<g id="edge39" class="edge">
<title>transitiveCompileClasspath&#45;&gt;compileClasspath</title>
<path fill="none" stroke="black" d="M1352.41,-426.94C1388.28,-420.47 1428.44,-413.22 1463.25,-406.94"/>
<polygon fill="black" stroke="black" points="1464.17,-410.33 1473.39,-405.11 1462.92,-403.44 1464.17,-410.33"/>
</g>
<!-- allScalacOptions -->
<g id="node30" class="node">
<title>allScalacOptions</title>
<polygon fill="none" stroke="black" stroke-dasharray="5,2" points="1328.1,-297 1174.64,-297 1174.64,-261 1328.1,-261 1328.1,-297"/>
<text text-anchor="middle" x="1251.37" y="-274.8" font-family="Times,serif" font-size="14.00">allScalacOptions</text>
</g>
<!-- enablePluginScalacOptions&#45;&gt;allScalacOptions -->
<g id="edge40" class="edge">
<title>enablePluginScalacOptions&#45;&gt;allScalacOptions</title>
<path fill="none" stroke="black" d="M1052.19,-197.07C1059.01,-199.67 1065.66,-202.63 1071.88,-206 1090.96,-216.34 1088.91,-228.45 1107.88,-239 1125.36,-248.73 1145.38,-256.24 1164.79,-261.98"/>
<polygon fill="black" stroke="black" points="1163.98,-265.39 1174.55,-264.74 1165.88,-258.65 1163.98,-265.39"/>
</g>
<!-- scalacPluginIvyDeps -->
<g id="node28" class="node">
<title>scalacPluginIvyDeps</title>
<polygon fill="none" stroke="black" stroke-dasharray="5,2" points="823.32,-197 647.21,-197 647.21,-161 823.32,-161 823.32,-197"/>
<text text-anchor="middle" x="735.27" y="-174.8" font-family="Times,serif" font-size="14.00">scalacPluginIvyDeps</text>
</g>
<!-- scalacPluginIvyDeps&#45;&gt;enablePluginScalacOptions -->
<g id="edge42" class="edge">
<title>scalacPluginIvyDeps&#45;&gt;enablePluginScalacOptions</title>
<path fill="none" stroke="black" d="M823.61,-179C832.03,-179 840.66,-179 849.29,-179"/>
<polygon fill="black" stroke="black" points="849.42,-182.5 859.42,-179 849.42,-175.5 849.42,-182.5"/>
</g>
<!-- scalacPluginIvyDeps&#45;&gt;scalacPluginClasspath -->
<g id="edge41" class="edge">
<title>scalacPluginIvyDeps&#45;&gt;scalacPluginClasspath</title>
<path fill="none" stroke="black" d="M812.65,-160.94C833.8,-155.95 856.9,-150.49 878.56,-145.37"/>
<polygon fill="black" stroke="black" points="879.47,-148.75 888.4,-143.04 877.86,-141.93 879.47,-148.75"/>
</g>
<!-- mandatoryScalacOptions -->
<g id="node29" class="node">
<title>mandatoryScalacOptions</title>
<polygon fill="none" stroke="black" stroke-dasharray="5,2" points="1065.32,-251 866.11,-251 866.11,-215 1065.32,-215 1065.32,-251"/>
<text text-anchor="middle" x="965.71" y="-228.8" font-family="Times,serif" font-size="14.00">mandatoryScalacOptions</text>
</g>
<!-- mandatoryScalacOptions&#45;&gt;allScalacOptions -->
<g id="edge43" class="edge">
<title>mandatoryScalacOptions&#45;&gt;allScalacOptions</title>
<path fill="none" stroke="black" d="M1065.52,-249.02C1097.84,-254.26 1133.45,-260.04 1164.71,-265.11"/>
<polygon fill="black" stroke="black" points="1164.27,-268.58 1174.7,-266.73 1165.39,-261.67 1164.27,-268.58"/>
</g>
<!-- allScalacOptions&#45;&gt;compile -->
<g id="edge44" class="edge">
<title>allScalacOptions&#45;&gt;compile</title>
<path fill="none" stroke="black" d="M1328.21,-287.58C1412.67,-297.14 1553.25,-313.1 1674.28,-327 1693.73,-329.24 1714.96,-331.69 1734.1,-333.91"/>
<polygon fill="black" stroke="black" points="1733.86,-337.41 1744.2,-335.08 1734.67,-330.45 1733.86,-337.41"/>
</g>
<!-- scalacOptions -->
<g id="node31" class="node">
<title>scalacOptions</title>
<polygon fill="none" stroke="black" stroke-dasharray="5,2" points="1034.11,-305 897.32,-305 897.32,-269 1034.11,-269 1034.11,-305"/>
<text text-anchor="middle" x="965.71" y="-282.8" font-family="Times,serif" font-size="14.00">scalacOptions</text>
</g>
<!-- scalacOptions&#45;&gt;allScalacOptions -->
<g id="edge45" class="edge">
<title>scalacOptions&#45;&gt;allScalacOptions</title>
<path fill="none" stroke="black" d="M1034.29,-285.09C1073.28,-283.99 1122.68,-282.6 1164.4,-281.42"/>
<polygon fill="black" stroke="black" points="1164.66,-284.92 1174.56,-281.14 1164.46,-277.92 1164.66,-284.92"/>
</g>
<!-- scalaCompilerClasspath&#45;&gt;compile -->
<g id="edge46" class="edge">
<title>scalaCompilerClasspath&#45;&gt;compile</title>
<path fill="none" stroke="black" d="M1062.54,-341C1234.54,-341 1590.98,-341 1733.84,-341"/>
<polygon fill="black" stroke="black" points="1734.16,-344.5 1744.16,-341 1734.16,-337.5 1734.16,-344.5"/>
</g>
<!-- scalacPluginClasspath&#45;&gt;compile -->
<g id="edge47" class="edge">
<title>scalacPluginClasspath&#45;&gt;compile</title>
<path fill="none" stroke="black" d="M1057.38,-139.3C1194.11,-162.52 1459.88,-214.13 1674.28,-295 1691.2,-301.39 1693.59,-307 1710.28,-314 1717.95,-317.22 1726.15,-320.28 1734.32,-323.1"/>
<polygon fill="black" stroke="black" points="1733.26,-326.44 1743.85,-326.31 1735.49,-319.81 1733.26,-326.44"/>
</g>
<!-- zincAuxiliaryClassFileExtensions&#45;&gt;zincAuxiliaryClassFileExtensions -->
<g id="edge49" class="edge">
<title>zincAuxiliaryClassFileExtensions&#45;&gt;zincAuxiliaryClassFileExtensions</title>
<path fill="none" stroke="black" d="M443.13,-87.15C436.45,-96.54 450.92,-105 486.55,-105 508.25,-105 522.11,-101.86 528.11,-97.28"/>
<polygon fill="black" stroke="black" points="531.6,-97.62 529.96,-87.15 524.72,-96.36 531.6,-97.62"/>
</g>
<!-- zincAuxiliaryClassFileExtensions&#45;&gt;compile -->
<g id="edge48" class="edge">
<title>zincAuxiliaryClassFileExtensions&#45;&gt;compile</title>
<path fill="none" stroke="black" d="M611,-70.27C786.77,-74.13 1118.52,-88.98 1394.85,-145 1410.58,-148.19 1662.36,-207.26 1674.28,-218 1708.12,-248.52 1677.25,-282.6 1710.28,-314 1717.17,-320.55 1725.65,-325.52 1734.56,-329.28"/>
<polygon fill="black" stroke="black" points="1733.35,-332.56 1743.95,-332.77 1735.8,-326 1733.35,-332.56"/>
</g>
<!-- compile&#45;&gt;docker.buildSettings -->
<g id="edge50" class="edge">
<title>compile&#45;&gt;docker.buildSettings</title>
<path fill="none" stroke="black" d="M1847.96,-325.76C1859.17,-322.13 1870.93,-318.11 1881.75,-314 1906.75,-304.51 1934.01,-292.59 1956.4,-282.37"/>
<polygon fill="black" stroke="black" points="1958.06,-285.46 1965.68,-278.1 1955.14,-279.1 1958.06,-285.46"/>
</g>
<!-- upstreamCompileOutput -->
<g id="node36" class="node">
<title>upstreamCompileOutput</title>
<polygon fill="none" stroke="black" stroke-dasharray="5,2" points="1650.86,-144 1454.27,-144 1454.27,-108 1650.86,-108 1650.86,-144"/>
<text text-anchor="middle" x="1552.56" y="-121.8" font-family="Times,serif" font-size="14.00">upstreamCompileOutput</text>
</g>
<!-- upstreamCompileOutput&#45;&gt;compile -->
<g id="edge51" class="edge">
<title>upstreamCompileOutput&#45;&gt;compile</title>
<path fill="none" stroke="black" d="M1651.15,-141.39C1659.72,-145.7 1667.64,-151.15 1674.28,-158 1723.77,-209.12 1662.06,-261.67 1710.28,-314 1716.88,-321.16 1725.37,-326.44 1734.42,-330.31"/>
<polygon fill="black" stroke="black" points="1733.41,-333.67 1744,-333.87 1735.85,-327.11 1733.41,-333.67"/>
</g>
<!-- javacOptions -->
<g id="node37" class="node">
<title>javacOptions</title>
<polygon fill="none" stroke="black" stroke-dasharray="5,2" points="1618.8,-90 1486.33,-90 1486.33,-54 1618.8,-54 1618.8,-90"/>
<text text-anchor="middle" x="1552.56" y="-67.8" font-family="Times,serif" font-size="14.00">javacOptions</text>
</g>
<!-- javacOptions&#45;&gt;compile -->
<g id="edge52" class="edge">
<title>javacOptions&#45;&gt;compile</title>
<path fill="none" stroke="black" d="M1618.84,-72.81C1639.15,-76.34 1659.95,-83.88 1674.28,-99 1740.91,-169.34 1646.82,-240.79 1710.28,-314 1716.8,-321.53 1725.41,-326.97 1734.65,-330.91"/>
<polygon fill="black" stroke="black" points="1733.45,-334.2 1744.05,-334.37 1735.87,-327.63 1733.45,-334.2"/>
</g>
<!-- zincReportCachedProblems -->
<g id="node38" class="node">
<title>zincReportCachedProblems</title>
<polygon fill="none" stroke="black" stroke-dasharray="5,2" points="1659.72,-625 1445.41,-625 1445.41,-589 1659.72,-589 1659.72,-625"/>
<text text-anchor="middle" x="1552.56" y="-602.8" font-family="Times,serif" font-size="14.00">zincReportCachedProblems</text>
</g>
<!-- zincReportCachedProblems&#45;&gt;compile -->
<g id="edge53" class="edge">
<title>zincReportCachedProblems&#45;&gt;compile</title>
<path fill="none" stroke="black" d="M1659.84,-589.24C1664.93,-586.56 1669.79,-583.5 1674.28,-580 1710.44,-551.85 1762.51,-425.3 1784.54,-368.61"/>
<polygon fill="black" stroke="black" points="1787.84,-369.78 1788.18,-359.19 1781.31,-367.26 1787.84,-369.78"/>
</g>
<!-- zincIncrementalCompilation -->
<g id="node39" class="node">
<title>zincIncrementalCompilation</title>
<polygon fill="none" stroke="black" stroke-dasharray="5,2" points="1661.61,-571 1443.52,-571 1443.52,-535 1661.61,-535 1661.61,-571"/>
<text text-anchor="middle" x="1552.56" y="-548.8" font-family="Times,serif" font-size="14.00">zincIncrementalCompilation</text>
</g>
<!-- zincIncrementalCompilation&#45;&gt;compile -->
<g id="edge54" class="edge">
<title>zincIncrementalCompilation&#45;&gt;compile</title>
<path fill="none" stroke="black" d="M1658.8,-534.91C1664.22,-532.32 1669.42,-529.37 1674.28,-526 1731.64,-486.23 1768.46,-409.5 1784.96,-368.47"/>
<polygon fill="black" stroke="black" points="1788.24,-369.68 1788.62,-359.09 1781.72,-367.13 1788.24,-369.68"/>
</g>
<!-- artifactNameParts -->
<g id="node40" class="node">
<title>artifactNameParts</title>
<polygon fill="none" stroke="black" stroke-dasharray="5,2" points="1331.29,-36 1171.44,-36 1171.44,0 1331.29,0 1331.29,-36"/>
<text text-anchor="middle" x="1251.37" y="-13.8" font-family="Times,serif" font-size="14.00">artifactNameParts</text>
</g>
<!-- artifactName -->
<g id="node41" class="node">
<title>artifactName</title>
<polygon fill="none" stroke="black" stroke-dasharray="5,2" points="1618.5,-36 1486.63,-36 1486.63,0 1618.5,0 1618.5,-36"/>
<text text-anchor="middle" x="1552.56" y="-13.8" font-family="Times,serif" font-size="14.00">artifactName</text>
</g>
<!-- artifactNameParts&#45;&gt;artifactName -->
<g id="edge55" class="edge">
<title>artifactNameParts&#45;&gt;artifactName</title>
<path fill="none" stroke="black" d="M1331.37,-18C1376.34,-18 1432.36,-18 1476.64,-18"/>
<polygon fill="black" stroke="black" points="1476.76,-21.5 1486.76,-18 1476.76,-14.5 1476.76,-21.5"/>
</g>
<!-- docker.tags -->
<g id="node42" class="node">
<title>docker.tags</title>
<polygon fill="none" stroke="black" stroke-dasharray="5,2" points="1857.03,-305 1735,-305 1735,-269 1857.03,-269 1857.03,-305"/>
<text text-anchor="middle" x="1796.01" y="-282.8" font-family="Times,serif" font-size="14.00">docker.tags</text>
</g>
<!-- artifactName&#45;&gt;docker.tags -->
<g id="edge56" class="edge">
<title>artifactName&#45;&gt;docker.tags</title>
<path fill="none" stroke="black" d="M1618.53,-18.75C1638.94,-22.26 1659.88,-29.8 1674.28,-45 1740.91,-115.34 1646.82,-186.79 1710.28,-260 1714.59,-264.98 1719.82,-269.05 1725.54,-272.37"/>
<polygon fill="black" stroke="black" points="1724.35,-275.69 1734.87,-277 1727.47,-269.42 1724.35,-275.69"/>
</g>
<!-- docker.tags&#45;&gt;docker.buildSettings -->
<g id="edge57" class="edge">
<title>docker.tags&#45;&gt;docker.buildSettings</title>
<path fill="none" stroke="black" d="M1857.07,-279.15C1872.91,-277.08 1890.4,-274.8 1907.63,-272.55"/>
<polygon fill="black" stroke="black" points="1908.26,-276 1917.73,-271.23 1907.36,-269.05 1908.26,-276"/>
</g>
<!-- docker.sourceImage -->
<g id="node43" class="node">
<title>docker.sourceImage</title>
<polygon fill="none" stroke="black" stroke-dasharray="5,2" points="1881.99,-251 1710.04,-251 1710.04,-215 1881.99,-215 1881.99,-251"/>
<text text-anchor="middle" x="1796.01" y="-228.8" font-family="Times,serif" font-size="14.00">docker.sourceImage</text>
</g>
<!-- docker.sourceImage&#45;&gt;docker.buildSettings -->
<g id="edge58" class="edge">
<title>docker.sourceImage&#45;&gt;docker.buildSettings</title>
<path fill="none" stroke="black" d="M1881.97,-244.1C1890.45,-245.21 1899.1,-246.34 1907.69,-247.46"/>
<polygon fill="black" stroke="black" points="1907.35,-250.94 1917.72,-248.77 1908.26,-244 1907.35,-250.94"/>
</g>
<!-- docker.targetImage -->
<g id="node45" class="node">
<title>docker.targetImage</title>
<polygon fill="none" stroke="black" stroke-dasharray="5,2" points="1879.33,-197 1712.7,-197 1712.7,-161 1879.33,-161 1879.33,-197"/>
<text text-anchor="middle" x="1796.01" y="-174.8" font-family="Times,serif" font-size="14.00">docker.targetImage</text>
</g>
<!-- docker.targetImage&#45;&gt;docker.buildSettings -->
<g id="edge59" class="edge">
<title>docker.targetImage&#45;&gt;docker.buildSettings</title>
<path fill="none" stroke="black" d="M1856.56,-197.07C1865.07,-199.91 1873.67,-202.93 1881.75,-206 1906.75,-215.49 1934.01,-227.41 1956.4,-237.63"/>
<polygon fill="black" stroke="black" points="1955.14,-240.9 1965.68,-241.9 1958.06,-234.54 1955.14,-240.9"/>
</g>
<!-- resources -->
<g id="node46" class="node">
<title>resources</title>
<polygon fill="none" stroke="black" stroke-dasharray="5,2" points="1851.74,-143 1740.29,-143 1740.29,-107 1851.74,-107 1851.74,-143"/>
<text text-anchor="middle" x="1796.01" y="-120.8" font-family="Times,serif" font-size="14.00">resources</text>
</g>
<!-- resources&#45;&gt;docker.buildSettings -->
<g id="edge60" class="edge">
<title>resources&#45;&gt;docker.buildSettings</title>
<path fill="none" stroke="black" d="M1851.77,-138.75C1862.06,-142.35 1872.49,-146.74 1881.75,-152 1920.58,-174.06 1957.9,-210 1980.8,-234.3"/>
<polygon fill="black" stroke="black" points="1978.34,-236.8 1987.71,-241.75 1983.47,-232.04 1978.34,-236.8"/>
</g>
</g>
</svg>
