<svg width="3357" height="1846" xmlns="http://www.w3.org/2000/svg" xmlns:xlink="http://www.w3.org/1999/xlink" xml:space="preserve" overflow="hidden"><g transform="translate(-186 -232)"><rect x="1237.5" y="239.5" width="881" height="135" stroke="#042433" stroke-width="6.875" stroke-miterlimit="8" fill="#0B3041"/><text fill="#FFFFFF" font-family="Aptos,Aptos_MSFontService,sans-serif" font-weight="400" font-size="64" transform="matrix(1 0 0 1 1516.71 327)">Base Image</text><rect x="1237.5" y="435.5" width="881" height="135" stroke="#024059" stroke-width="6.875" stroke-miterlimit="8" fill="#104862"/><text fill="#FFFFFF" font-family="Aptos,Aptos_MSFontService,sans-serif" font-weight="400" font-size="64" transform="matrix(1 0 0 1 1332.32 523)">Upstream Dependencies</text><rect x="1237.5" y="632.5" width="881" height="135" stroke="#024059" stroke-width="6.875" stroke-miterlimit="8" fill="#46B1E1"/><text fill="#FFFFFF" font-family="Aptos,Aptos_MSFontService,sans-serif" font-weight="400" font-size="64" transform="matrix(1 0 0 1 1337.14 720)">Snapshot Dependencies</text><rect x="1237.5" y="829.5" width="881" height="135" stroke="#024059" stroke-width="6.875" stroke-miterlimit="8" fill="#83CBEB"/><text fill="#FFFFFF" font-family="Aptos,Aptos_MSFontService,sans-serif" font-weight="400" font-size="64" transform="matrix(1 0 0 1 1530.36 917)">Resources</text><rect x="1237.5" y="1025.5" width="881" height="135" stroke="#024059" stroke-width="6.875" stroke-miterlimit="8" fill="#C1E5F5"/><text fill="#FFFFFF" font-family="Aptos,Aptos_MSFontService,sans-serif" font-weight="400" font-size="64" transform="matrix(1 0 0 1 1459.32 1113)">Your</text><text fill="#FFFFFF" font-family="Aptos,Aptos_MSFontService,sans-serif" font-weight="400" font-size="64" transform="matrix(1 0 0 1 1595.2 1113)">Class </text><text fill="#FFFFFF" font-family="Aptos,Aptos_MSFontService,sans-serif" font-weight="400" font-size="64" transform="matrix(1 0 0 1 1765.92 1113)">F</text><text fill="#FFFFFF" font-family="Aptos,Aptos_MSFontService,sans-serif" font-weight="400" font-size="64" transform="matrix(1 0 0 1 1798.76 1113)">iles</text><path d="M289.5 264.667C289.5 252.977 298.977 243.5 310.667 243.5L948.333 243.5C960.023 243.5 969.5 252.977 969.5 264.667L969.5 349.333C969.5 361.023 960.023 370.5 948.333 370.5L310.667 370.5C298.977 370.5 289.5 361.023 289.5 349.333Z" stroke="#042433" stroke-width="6.875" stroke-miterlimit="8" fill="#3B7D23" fill-rule="evenodd"/><text fill="#FFFFFF" font-family="Aptos,Aptos_MSFontService,sans-serif" font-weight="400" font-size="83" transform="matrix(1 0 0 1 385.738 333)">Source Image</text><path d="M194.5 661.667C194.5 649.977 203.977 640.5 215.667 640.5L976.333 640.5C988.023 640.5 997.5 649.977 997.5 661.667L997.5 746.333C997.5 758.023 988.023 767.5 976.333 767.5L215.667 767.5C203.977 767.5 194.5 758.023 194.5 746.333Z" stroke="#042433" stroke-width="6.875" stroke-miterlimit="8" fill="#78206E" fill-rule="evenodd"/><text fill="#FFFFFF" font-family="Aptos,Aptos_MSFontService,sans-serif" font-weight="400" font-size="83" transform="matrix(1 0 0 1 322.188 730)">upstream Deps</text><path d="M5.87884-7.03328 210.664 164.138 198.906 178.205-5.87884 7.03328ZM215.388 144.193 239.951 200.566 180.115 186.393Z" fill="#156082" transform="matrix(1 0 0 -1 997 703.566)"/><path d="M0.150064-9.16544 194.274-5.98708 193.974 12.3438-0.150064 9.16544ZM185.409-24.468 239.951 3.92867 184.508 30.5246Z" fill="#156082" transform="matrix(1 0 0 -1 997 703.929)"/><path d="M969 296.833 1191.4 296.834 1191.4 315.167 969 315.167ZM1182.24 278.5 1237.24 306 1182.24 333.5Z" fill="#156082"/><path d="M194.5 851.667C194.5 839.977 203.977 830.5 215.667 830.5L976.333 830.5C988.023 830.5 997.5 839.977 997.5 851.667L997.5 936.333C997.5 948.023 988.023 957.5 976.333 957.5L215.667 957.5C203.977 957.5 194.5 948.023 194.5 936.333Z" stroke="#042433" stroke-width="6.875" stroke-miterlimit="8" fill="#78206E" fill-rule="evenodd"/><text fill="#FFFFFF" font-family="Aptos,Aptos_MSFontService,sans-serif" font-weight="400" font-size="83" transform="matrix(1 0 0 1 406.452 920)">Resources</text><path d="M997.106 883.834 1191.23 886.076 1191.02 904.408 996.894 902.166ZM1182.27 867.638 1236.95 895.771 1181.64 922.634Z" fill="#156082"/><path d="M189.5 1041.67C189.5 1029.98 198.977 1020.5 210.666 1020.5L971.333 1020.5C983.023 1020.5 992.5 1029.98 992.5 1041.67L992.5 1126.33C992.5 1138.02 983.023 1147.5 971.333 1147.5L210.666 1147.5C198.977 1147.5 189.5 1138.02 189.5 1126.33Z" stroke="#042433" stroke-width="6.875" stroke-miterlimit="8" fill="#78206E" fill-rule="evenodd"/><text fill="#FFFFFF" font-family="Aptos,Aptos_MSFontService,sans-serif" font-weight="400" font-size="83" transform="matrix(1 0 0 1 439.116 1110)">Compile</text><path d="M992.355 1073.84 1191.09 1081.54 1190.38 1099.86 991.645 1092.16ZM1182.64 1062.86 1236.54 1092.47 1180.52 1117.82Z" fill="#156082"/><path d="M1394.5 1934C1394.5 1921.57 1404.57 1911.5 1417 1911.5L2145 1911.5C2157.43 1911.5 2167.5 1921.57 2167.5 1934L2167.5 2024C2167.5 2036.43 2157.43 2046.5 2145 2046.5L1417 2046.5C1404.57 2046.5 1394.5 2036.43 1394.5 2024Z" stroke="#042433" stroke-width="6.875" stroke-miterlimit="8" fill="#3B7D23" fill-rule="evenodd"/><text fill="#FFFFFF" font-family="Aptos,Aptos_MSFontService,sans-serif" font-weight="400" font-size="83" transform="matrix(1 0 0 1 1556.12 2005)">Target</text><text fill="#FFFFFF" font-family="Aptos,Aptos_MSFontService,sans-serif" font-weight="400" font-size="83" transform="matrix(1 0 0 1 1786.2 2005)">Image</text><rect x="2397.5" y="636.5" width="1142" height="135" stroke="#024059" stroke-width="6.875" stroke-miterlimit="8" fill="#AEAEAE"/><text fill="#FFFFFF" font-family="Aptos,Aptos_MSFontService,sans-serif" font-weight="400" font-size="64" transform="matrix(1 0 0 1 2800.13 724)">JibJavaBuild</text><path d="M2195.5 677.5 2309.5 677.5 2309.5 647.5 2369.5 707.5 2309.5 767.5 2309.5 737.5 2195.5 737.5Z" stroke="#042433" stroke-width="6.875" stroke-miterlimit="8" fill="#156082" fill-rule="evenodd"/><path d="M2397.5 916.668C2397.5 904.977 2406.98 895.5 2418.67 895.5L3518.33 895.5C3530.02 895.5 3539.5 904.977 3539.5 916.668L3539.5 1001.33C3539.5 1013.02 3530.02 1022.5 3518.33 1022.5L2418.67 1022.5C2406.98 1022.5 2397.5 1013.02 2397.5 1001.33Z" stroke="#042433" stroke-width="6.875" stroke-miterlimit="8" fill="#8ED973" fill-rule="evenodd"/><text fill="#FFFFFF" font-family="Aptos,Aptos_MSFontService,sans-serif" font-weight="400" font-size="83" transform="matrix(1 0 0 1 2456.13 985)">[ </text><text fill="#FFFFFF" font-family="Aptos,Aptos_MSFontService,sans-serif" font-weight="400" font-size="83" transform="matrix(1 0 0 1 2496.81 985)">javaContainerBuilderHook</text><text fill="#FFFFFF" font-family="Aptos,Aptos_MSFontService,sans-serif" font-weight="400" font-size="83" transform="matrix(1 0 0 1 3455.18 985)">]</text><path d="M2998.5 791.5 2998.5 833.5 3028.5 833.5 2968.5 875.5 2908.5 833.5 2938.5 833.5 2938.5 791.5Z" stroke="#042433" stroke-width="6.875" stroke-miterlimit="8" fill="#156082" fill-rule="evenodd"/><rect x="2397.5" y="1146.5" width="1142" height="135" stroke="#024059" stroke-width="6.875" stroke-miterlimit="8" fill="#AEAEAE"/><text fill="#FFFFFF" font-family="Aptos,Aptos_MSFontService,sans-serif" font-weight="400" font-size="64" transform="matrix(1 0 0 1 2800.13 1234)">JibJavaBuild</text><path d="M2998.5 1042.5 2998.5 1084.5 3028.5 1084.5 2968.5 1126.5 2908.5 1084.5 2938.5 1084.5 2938.5 1042.5Z" stroke="#042433" stroke-width="6.875" stroke-miterlimit="8" fill="#156082" fill-rule="evenodd"/><path d="M2397.5 1685.67C2397.5 1673.98 2406.98 1664.5 2418.67 1664.5L3518.33 1664.5C3530.02 1664.5 3539.5 1673.98 3539.5 1685.67L3539.5 1770.33C3539.5 1782.02 3530.02 1791.5 3518.33 1791.5L2418.67 1791.5C2406.98 1791.5 2397.5 1782.02 2397.5 1770.33Z" stroke="#042433" stroke-width="6.875" stroke-miterlimit="8" fill="#8ED973" fill-rule="evenodd"/><text fill="#FFFFFF" font-family="Aptos,Aptos_MSFontService,sans-serif" font-weight="400" font-size="83" transform="matrix(1 0 0 1 2485.74 1754)">[ </text><text fill="#FFFFFF" font-family="Aptos,Aptos_MSFontService,sans-serif" font-weight="400" font-size="83" transform="matrix(1 0 0 1 2526.42 1754)">jibContainerBuilderHook</text><text fill="#FFFFFF" font-family="Aptos,Aptos_MSFontService,sans-serif" font-weight="400" font-size="83" transform="matrix(1 0 0 1 3425.57 1754)">]</text><rect x="2397.5" y="1915.5" width="1142" height="135" stroke="#024059" stroke-width="6.875" stroke-miterlimit="8" fill="#AEAEAE"/><text fill="#FFFFFF" font-family="Aptos,Aptos_MSFontService,sans-serif" font-weight="400" font-size="64" transform="matrix(1 0 0 1 2721.46 2003)">JibContainerBuild</text><rect x="2397.5" y="1405.5" width="1142" height="135" stroke="#024059" stroke-width="6.875" stroke-miterlimit="8" fill="#AEAEAE"/><text fill="#FFFFFF" font-family="Aptos,Aptos_MSFontService,sans-serif" font-weight="400" font-size="64" transform="matrix(1 0 0 1 2721.46 1493)">JibContainerBuild</text><path d="M2998.5 1301.5 2998.5 1343.5 3028.5 1343.5 2968.5 1385.5 2908.5 1343.5 2938.5 1343.5 2938.5 1301.5Z" stroke="#042433" stroke-width="6.875" stroke-miterlimit="8" fill="#156082" fill-rule="evenodd"/><path d="M2998.5 1560.5 2998.5 1602.5 3028.5 1602.5 2968.5 1644.5 2908.5 1602.5 2938.5 1602.5 2938.5 1560.5Z" stroke="#042433" stroke-width="6.875" stroke-miterlimit="8" fill="#156082" fill-rule="evenodd"/><path d="M2998.5 1811.5 2998.5 1853.5 3028.5 1853.5 2968.5 1895.5 2908.5 1853.5 2938.5 1853.5 2938.5 1811.5Z" stroke="#042433" stroke-width="6.875" stroke-miterlimit="8" fill="#156082" fill-rule="evenodd"/><path d="M2369.5 2016.5 2255.5 2016.5 2255.5 2046.5 2195.5 1986.5 2255.5 1926.5 2255.5 1956.5 2369.5 1956.5Z" stroke="#042433" stroke-width="6.875" stroke-miterlimit="8" fill="#156082" fill-rule="evenodd"/><path d="M2195.5 677.5 2309.5 677.5 2309.5 647.5 2369.5 707.5 2309.5 767.5 2309.5 737.5 2195.5 737.5Z" stroke="#042433" stroke-width="6.875" stroke-miterlimit="8" fill="#156082" fill-rule="evenodd"/><path d="M1394.5 1632C1394.5 1618.47 1405.47 1607.5 1419 1607.5L2143 1607.5C2156.53 1607.5 2167.5 1618.47 2167.5 1632L2167.5 1730C2167.5 1743.53 2156.53 1754.5 2143 1754.5L1419 1754.5C1405.47 1754.5 1394.5 1743.53 1394.5 1730Z" stroke="#042433" stroke-width="6.875" stroke-miterlimit="8" fill="#8ED973" fill-rule="evenodd"/><text fill="#FFFFFF" font-family="Aptos,Aptos_MSFontService,sans-serif" font-weight="400" font-size="83" transform="matrix(1 0 0 1 1460.8 1707)">Container Params</text><path d="M1790.17 1754 1790.17 1865.1 1771.83 1865.1 1771.83 1754ZM1808.5 1855.93 1781 1910.93 1753.5 1855.93Z" fill="#156082"/></g></svg>